<svg width="48" height="48" viewBox="0 0 48 48" fill="none" xmlns="http://www.w3.org/2000/svg">
<path d="M5.52832 35.2225C6.04089 39.807 9.76579 43.4427 14.3726 43.6656C17.5562 43.8184 20.8068 43.898 24.3375 43.898C27.8682 43.898 31.1187 43.8184 34.3024 43.6656C38.9091 43.4427 42.634 39.8038 43.1466 35.2225C43.4936 32.1343 43.777 28.9729 43.777 25.751C43.777 22.526 43.4904 19.3614 43.1466 16.2764C42.634 11.6919 38.9091 8.05619 34.3024 7.83333C31.1187 7.68051 27.8682 7.60092 24.3375 7.60092C20.8068 7.60092 17.5562 7.68051 14.3726 7.83333C9.76579 8.05619 6.04089 11.6951 5.52832 16.2764C5.1813 19.3646 4.89795 22.526 4.89795 25.751C4.89795 28.9729 5.18448 32.1375 5.52832 35.2225Z" stroke="#0E70AB" stroke-width="3.42857" stroke-linecap="round" stroke-linejoin="round"/>
<path d="M15.2544 4.10205V12.0612" stroke="#0E70AB" stroke-width="3.42857" stroke-linecap="round" stroke-linejoin="round"/>
<path d="M32.7551 4.10205V12.0612" stroke="#0E70AB" stroke-width="3.42857" stroke-linecap="round" stroke-linejoin="round"/>
<path d="M5.22583 19.2245H43.449" stroke="#0E70AB" stroke-width="3.42857" stroke-linecap="round" stroke-linejoin="round"/>
</svg>
