<svg width="48" height="48" viewBox="0 0 48 48" fill="none" xmlns="http://www.w3.org/2000/svg">
<path d="M32.1757 5.7098C32.2865 5.43582 32.4766 5.20119 32.7217 5.03598C32.9667 4.87077 33.2555 4.7825 33.551 4.7825C33.8466 4.7825 34.1354 4.87077 34.3804 5.03598C34.6254 5.20119 34.8156 5.43582 34.9264 5.7098L36.7952 10.272L41.8668 10.7177C43.1912 10.8323 43.7069 12.5006 42.6786 13.3411L39.6637 15.818C39.452 15.9913 39.2923 16.2199 39.2024 16.4784C39.1125 16.7368 39.0959 17.0151 39.1543 17.2824L40.154 21.9051C40.2169 22.1943 40.1918 22.4957 40.0821 22.7705C39.9724 23.0453 39.783 23.2811 39.5383 23.4474C39.2935 23.6138 39.0046 23.7031 38.7087 23.704C38.4128 23.7049 38.1234 23.6173 37.8776 23.4524L33.551 20.5616L29.2244 23.4588C28.9785 23.624 28.6886 23.7119 28.3923 23.7109C28.096 23.71 27.8067 23.6204 27.5618 23.4535C27.3169 23.2867 27.1275 23.0504 27.0182 22.775C26.9088 22.4996 26.8844 22.1977 26.9481 21.9083L27.9478 17.2824C28.0056 17.0156 27.9886 16.738 27.8987 16.4801C27.8088 16.2223 27.6495 15.9943 27.4384 15.8211L24.4234 13.3442C24.1949 13.1574 24.0274 12.9066 23.9422 12.624C23.857 12.3413 23.8581 12.0397 23.9453 11.7577C24.0324 11.4757 24.2017 11.2261 24.4315 11.0408C24.6613 10.8556 24.9412 10.7431 25.2353 10.7177L30.3069 10.272L32.1757 5.7098Z" stroke="#0E70AB" stroke-width="3.42857" stroke-linecap="round" stroke-linejoin="round"/>
<path d="M4.84385 21.9943L7.04695 21.8574C9.66654 21.6953 12.2955 21.9391 14.8406 22.5801L18.5336 23.5097C19.5131 23.7569 20.3708 24.3486 20.9496 25.1765C21.5284 26.0044 21.7896 27.013 21.6855 28.0178C21.4372 30.4533 19.1704 32.1566 16.7635 31.73L13.2456 31.0996L25.6523 33.325L38.5048 30.275C39.5042 30.0382 40.5565 30.2009 41.4377 30.7283C42.319 31.2557 42.9595 32.1063 43.223 33.099C43.7324 35.0187 42.7359 37.0149 40.8989 37.763L30.6157 41.9368C25.6164 43.9686 20.0457 44.0966 14.9584 42.2966L4.29944 38.5239" stroke="#0E70AB" stroke-width="3.42857" stroke-linecap="round" stroke-linejoin="round"/>
</svg>
