<svg width="48" height="48" viewBox="0 0 48 48" fill="none" xmlns="http://www.w3.org/2000/svg">
<path d="M17.6963 20.2019C18.1142 20.2152 18.5305 20.1445 18.9205 19.9938C19.3105 19.843 19.6663 19.6155 19.9666 19.3246C20.2669 19.0337 20.5057 18.6854 20.6688 18.3004C20.8319 17.9154 20.9159 17.5016 20.9159 17.0835C20.9159 16.6654 20.8319 16.2515 20.6688 15.8665C20.5057 15.4815 20.2669 15.1332 19.9666 14.8423C19.6663 14.5515 19.3105 14.3239 18.9205 14.1732C18.5305 14.0225 18.1142 13.9517 17.6963 13.9651C16.8688 13.9651 16.0752 14.2938 15.4901 14.8789C14.905 15.464 14.5763 16.2576 14.5763 17.0851C14.5763 17.9125 14.905 18.7061 15.4901 19.2912C16.0752 19.8763 16.8688 20.2019 17.6963 20.2019Z" stroke="#0E70AB" stroke-width="3.42857" stroke-linecap="round" stroke-linejoin="round"/>
<path d="M30.431 33.0034C31.2585 33.0034 32.0521 32.6747 32.6372 32.0896C33.2223 31.5045 33.551 30.7109 33.551 29.8834C33.551 29.056 33.2223 28.2624 32.6372 27.6773C32.0521 27.0921 31.2585 26.7634 30.431 26.7634C29.6036 26.7634 28.81 27.0921 28.2249 27.6773C27.6397 28.2624 27.311 29.056 27.311 29.8834C27.311 30.7109 27.6397 31.5045 28.2249 32.0896C28.81 32.6747 29.6036 33.0034 30.431 33.0034Z" stroke="#0E70AB" stroke-width="3.42857" stroke-linecap="round" stroke-linejoin="round"/>
<path d="M43.898 14.5509V18.2535C42.756 18.746 41.7832 19.5621 41.0998 20.6012C40.4163 21.6402 40.0521 22.8566 40.0521 24.1003C40.0521 25.344 40.4163 26.5604 41.0998 27.5994C41.7832 28.6385 42.756 29.4546 43.898 29.9471V33.6529C43.898 37.1677 41.3733 39.5204 37.5306 40.0203C26.964 41.3892 21.0551 41.3988 10.4694 40.0203C6.73495 39.5331 4.10205 37.1677 4.10205 33.6529V29.9471C5.24405 29.4546 6.21682 28.6385 6.90026 27.5994C7.58371 26.5604 7.94792 25.344 7.94792 24.1003C7.94792 22.8566 7.58371 21.6402 6.90026 20.6012C6.21682 19.5621 5.24405 18.746 4.10205 18.2535V14.5509C4.10205 11.0329 6.76042 8.8107 10.4694 8.18352C20.9278 6.40703 26.9194 6.67446 37.5306 8.18352C41.039 8.68017 43.898 11.0329 43.898 14.5509Z" stroke="#0E70AB" stroke-width="3.42857" stroke-linecap="round" stroke-linejoin="round"/>
<path d="M16.6967 30.7526C23.1436 25.4486 26.3655 22.2617 31.3033 16.1491" stroke="#0E70AB" stroke-width="3.42857" stroke-linecap="round" stroke-linejoin="round"/>
</svg>
