<!-- <svg class="icon icon-account" viewBox="0 0 40 40"><path d="M20 0C9 0 0 9 0 20s9 20 20 20 20-9 20-20S31 0 20 0zm-8.8 34.8c.5-4.9 4.8-8.5 9.7-8 4.2.4 7.6 3.8 8 8-5.5 3.3-12.3 3.3-17.7 0zM31.3 33c-1.4-6.2-7.6-10.1-13.9-8.7-4.3 1-7.7 4.4-8.7 8.7-7.2-6.2-8-17.1-1.8-24.4S24 .6 31.3 6.8s8 17.1 1.8 24.4c-.6.7-1.2 1.3-1.8 1.8z"/><path d="M20 8c-3.5 0-6.3 2.8-6.3 6.3s2.7 8.6 6.3 8.6 6.3-5.1 6.3-8.6S23.5 8 20 8zm0 12.2c-1.7 0-3.6-3.5-3.6-5.9 0-2 1.6-3.6 3.6-3.6s3.6 1.6 3.6 3.6c0 2.3-1.9 5.9-3.6 5.9z"/></svg> -->
<svg class="icon icon-account" id="icon-account-Capa_1" xmlns="http://www.w3.org/2000/svg" viewBox="0 0 60 60">
  <defs>
    <style>
      .icon-accountcls-1 {
        fill: #1d1d1b;
      }
    </style>
  </defs>
  <path class="icon-accountcls-1" d="M30,7.84c-12.22,0-22.16,9.94-22.16,22.16s9.94,22.16,22.16,22.16,22.15-9.94,22.15-22.16S42.22,7.84,30,7.84ZM19.32,46.43c.22-5.72,4.91-10.31,10.68-10.31s10.45,4.59,10.68,10.31c-3.08,2.01-6.74,3.18-10.68,3.18s-7.6-1.18-10.68-3.18ZM43.05,44.6c-1.07-6.24-6.51-11.02-13.05-11.02s-11.98,4.77-13.05,11.02c-4.02-3.59-6.56-8.8-6.56-14.6,0-10.82,8.8-19.61,19.62-19.61s19.61,8.8,19.61,19.61c0,5.8-2.55,11.01-6.56,14.6Z"/>
  <path class="icon-accountcls-1" d="M30,17.42c-3.73,0-6.77,3.04-6.77,6.77s3.04,6.77,6.77,6.77,6.77-3.04,6.77-6.77-3.04-6.77-6.77-6.77ZM30,28.42c-2.33,0-4.23-1.9-4.23-4.23s1.9-4.23,4.23-4.23,4.23,1.9,4.23,4.23-1.9,4.23-4.23,4.23Z"/>
</svg>
